<svg width="18" height="19" viewBox="0 0 18 19" fill="none" xmlns="http://www.w3.org/2000/svg">
<path d="M15.0075 12.035C14.085 12.035 13.1925 11.885 12.36 11.615C12.0975 11.525 11.805 11.5925 11.6025 11.795L10.425 13.2725C8.3025 12.26 6.315 10.3475 5.2575 8.15L6.72 6.905C6.9225 6.695 6.9825 6.4025 6.9 6.14C6.6225 5.3075 6.48 4.415 6.48 3.4925C6.48 3.0875 6.1425 2.75 5.7375 2.75H3.1425C2.7375 2.75 2.25 2.93 2.25 3.4925C2.25 10.46 8.0475 16.25 15.0075 16.25C15.54 16.25 15.75 15.7775 15.75 15.365V12.7775C15.75 12.3725 15.4125 12.035 15.0075 12.035Z" fill="#432E25"/>
</svg>
