<svg width="198" height="25" viewBox="0 0 198 25" fill="none" xmlns="http://www.w3.org/2000/svg">
<path d="M19.9 23.9C17.8 24.4 16.6 25 13.1 25C5.2 25 0 19.4 0 12.5C0 5.6 5.1 0 13 0C15.9 0 17.2 0.5 19.2 0.9V6.5C17.5 5 15.5 4.4 13.2 4.4C8.4 4.4 5.1 8 5.1 12.5C5.1 17 8.6 20.7 13.1 20.7C13.9 20.7 14.6 20.6 15 20.3V17.9C15 15.5 14.9 14.4 14.9 13.4H20C19.9 14.5 19.9 15.7 19.9 18.1V23.9Z" fill="white"/>
<path d="M31.8 18.4C31.8 20.8 31.8 23.5 31.9 24.6H26.5C26.6 23.5 26.7 20.8 26.7 18.4V6.8C26.7 4.4 26.6 1.6 26.5 0.5H33.7C39.5 0.5 42.6 3.7 42.6 8C42.6 11.8 40.4 13.7 37.8 14.5C40.5 17.6 43.2 21.8 46.2 24.5H39.5C38 22.6 34.9 18.3 33.4 15.3C33.2 15.3 32.9 15.3 32.7 15.3H31.5V18.4H31.8ZM31.8 11.8H33.7C36 11.8 37.6 10.3 37.6 8.2C37.6 6.3 36.2 4.5 33.5 4.5H31.8V11.8Z" fill="white"/>
<path d="M66.0998 24.5996C65.7998 23.7996 65.3998 22.6996 64.8998 21.5996L63.7998 18.9996H55.4998L54.3998 21.4996C53.8998 22.6996 53.4998 23.5996 53.1998 24.5996H47.7998C48.6998 23.0996 49.5998 21.2996 50.4998 19.2996L59.1998 0.0996094H60.5998L69.5998 19.2996C70.5998 21.2996 71.5998 23.1996 72.4998 24.5996H66.0998ZM59.6998 8.89961L57.1998 14.8996H62.1998L59.6998 8.89961Z" fill="white"/>
<path d="M81.8998 24.6H76.7998C76.8998 23.6 76.8998 21.4 76.8998 19.5V6.9C76.8998 4.8 76.7998 1.9 76.7998 0H77.8998C79.3998 1.7 80.2998 2.5 81.4998 3.6L92.1998 14.8V6.8C92.1998 4.8 92.1998 2 92.0998 0.5H97.1998C97.0998 2 96.9998 4.9 96.9998 6.8V19.6C96.9998 21.1 96.9998 23 97.1998 25H96.0998C94.9998 23.8 94.1998 22.9 92.9998 21.7L81.7998 10.1V19.5C81.6998 21.4 81.7998 23.6 81.8998 24.6Z" fill="white"/>
<path d="M104 24.6C104.1 23.5 104.2 20.7 104.2 18.3V6.8C104.2 4.4 104.1 1.6 104 0.5H112.4C119.1 0.5 124.5 5.9 124.5 12.5C124.5 19.1 119 24.6 112.4 24.6H104ZM109.3 20.4H112C116.1 20.4 119.4 16.8 119.4 12.5C119.4 8.2 116.1 4.6 112 4.6H109.3V20.4Z" fill="white"/>
<path d="M141.9 0C149.2 0 154.7 5.6 154.7 12.5C154.7 19.4 149.2 25 141.9 25C134.6 25 129.1 19.4 129.1 12.5C129.1 5.6 134.6 0 141.9 0ZM141.9 20.7C146.2 20.7 149.6 17 149.6 12.5C149.6 8 146.2 4.3 141.9 4.3C137.6 4.3 134.2 8 134.2 12.5C134.2 17.1 137.5 20.7 141.9 20.7Z" fill="white"/>
<path d="M165.6 18.4C165.6 20.8 165.6 23.5 165.7 24.6H160.3C160.4 23.5 160.5 20.8 160.5 18.4V6.8C160.5 4.4 160.4 1.6 160.3 0.5H167.5C173.3 0.5 176.4 3.7 176.4 8C176.4 11.8 174.2 13.7 171.6 14.5C174.3 17.6 177 21.8 180 24.5H173.5C172 22.6 168.9 18.3 167.4 15.3C167.2 15.3 166.9 15.3 166.7 15.3H165.5V18.4H165.6ZM165.6 11.8H167.5C169.8 11.8 171.4 10.3 171.4 8.2C171.4 6.3 170 4.5 167.3 4.5H165.6V11.8Z" fill="white"/>
<path d="M184.6 18.3004V6.80039C184.6 4.40039 184.5 1.60039 184.5 0.500391H192.1C194.5 0.500391 196.9 0.400391 198 0.400391V4.90039C196.9 4.80039 194.5 4.80039 192.1 4.80039H189.7V11.0004H191.7C194 11.0004 195.9 10.9004 196.9 10.9004V15.4004C195.8 15.3004 194 15.3004 191.7 15.3004H189.7V18.6004C189.7 21.0004 189.8 23.8004 189.8 24.9004H184.4C184.5 23.5004 184.6 20.7004 184.6 18.3004Z" fill="white"/>
</svg>
