<svg width="198" height="26" viewBox="0 0 198 26" fill="none" xmlns="http://www.w3.org/2000/svg">
<path d="M19.9 24.4C17.8 24.9 16.6 25.5 13.1 25.5C5.2 25.5 0 19.9 0 13C0 6.1 5.1 0.5 13 0.5C15.9 0.5 17.2 1 19.2 1.4V7C17.5 5.5 15.5 4.9 13.2 4.9C8.4 4.9 5.1 8.5 5.1 13C5.1 17.5 8.6 21.2 13.1 21.2C13.9 21.2 14.6 21.1 15 20.8V18.4C15 16 14.9 14.9 14.9 13.9H20C19.9 15 19.9 16.2 19.9 18.6V24.4Z" fill="#432E25"/>
<path d="M31.8 18.9C31.8 21.3 31.8 24 31.9 25.1H26.5C26.6 24 26.7 21.3 26.7 18.9V7.3C26.7 4.9 26.6 2.1 26.5 1H33.7C39.5 1 42.6 4.2 42.6 8.5C42.6 12.3 40.4 14.2 37.8 15C40.5 18.1 43.2 22.3 46.2 25H39.5C38 23.1 34.9 18.8 33.4 15.8C33.2 15.8 32.9 15.8 32.7 15.8H31.5V18.9H31.8ZM31.8 12.3H33.7C36 12.3 37.6 10.8 37.6 8.7C37.6 6.8 36.2 5 33.5 5H31.8V12.3Z" fill="#432E25"/>
<path d="M66.0998 25.1C65.7998 24.3 65.3998 23.2 64.8998 22.1L63.7998 19.5H55.4998L54.3998 22C53.8998 23.2 53.4998 24.1 53.1998 25.1H47.7998C48.6998 23.6 49.5998 21.8 50.4998 19.8L59.1998 0.599976H60.5998L69.5998 19.8C70.5998 21.8 71.5998 23.7 72.4998 25.1H66.0998ZM59.6998 9.39997L57.1998 15.4H62.1998L59.6998 9.39997Z" fill="#432E25"/>
<path d="M81.8998 25.1H76.7998C76.8998 24.1 76.8998 21.9 76.8998 20V7.4C76.8998 5.3 76.7998 2.4 76.7998 0.5H77.8998C79.3998 2.2 80.2998 3 81.4998 4.1L92.1998 15.3V7.3C92.1998 5.3 92.1998 2.5 92.0998 1H97.1998C97.0998 2.5 96.9998 5.4 96.9998 7.3V20.1C96.9998 21.6 96.9998 23.5 97.1998 25.5H96.0998C94.9998 24.3 94.1998 23.4 92.9998 22.2L81.7998 10.6V20C81.6998 21.9 81.7998 24.1 81.8998 25.1Z" fill="#432E25"/>
<path d="M104 25.1C104.1 24 104.2 21.2 104.2 18.8V7.3C104.2 4.9 104.1 2.1 104 1H112.4C119.1 1 124.5 6.4 124.5 13C124.5 19.6 119 25.1 112.4 25.1H104ZM109.3 20.9H112C116.1 20.9 119.4 17.3 119.4 13C119.4 8.7 116.1 5.1 112 5.1H109.3V20.9Z" fill="#432E25"/>
<path d="M141.9 0.5C149.2 0.5 154.7 6.1 154.7 13C154.7 19.9 149.2 25.5 141.9 25.5C134.6 25.5 129.1 19.9 129.1 13C129.1 6.1 134.6 0.5 141.9 0.5ZM141.9 21.2C146.2 21.2 149.6 17.5 149.6 13C149.6 8.5 146.2 4.8 141.9 4.8C137.6 4.8 134.2 8.5 134.2 13C134.2 17.6 137.5 21.2 141.9 21.2Z" fill="#432E25"/>
<path d="M165.6 18.9C165.6 21.3 165.6 24 165.7 25.1H160.3C160.4 24 160.5 21.3 160.5 18.9V7.3C160.5 4.9 160.4 2.1 160.3 1H167.5C173.3 1 176.4 4.2 176.4 8.5C176.4 12.3 174.2 14.2 171.6 15C174.3 18.1 177 22.3 180 25H173.5C172 23.1 168.9 18.8 167.4 15.8C167.2 15.8 166.9 15.8 166.7 15.8H165.5V18.9H165.6ZM165.6 12.3H167.5C169.8 12.3 171.4 10.8 171.4 8.7C171.4 6.8 170 5 167.3 5H165.6V12.3Z" fill="#432E25"/>
<path d="M184.6 18.8V7.30002C184.6 4.90002 184.5 2.10002 184.5 1.00002H192.1C194.5 1.00002 196.9 0.900024 198 0.900024V5.40002C196.9 5.30002 194.5 5.30002 192.1 5.30002H189.7V11.5H191.7C194 11.5 195.9 11.4 196.9 11.4V15.9C195.8 15.8 194 15.8 191.7 15.8H189.7V19.1C189.7 21.5 189.8 24.3 189.8 25.4H184.4C184.5 24 184.6 21.2 184.6 18.8Z" fill="#432E25"/>
</svg>
